<svg xmlns="http://www.w3.org/2000/svg" xmlns:xlink="http://www.w3.org/1999/xlink" width="500" zoomAndPan="magnify" viewBox="0 0 375 374.999991" height="500" preserveAspectRatio="xMidYMid meet" version="1.0"><defs><g/><clipPath id="6a3d06e134"><rect x="0" width="258" y="0" height="216"/></clipPath></defs><rect x="-37.5" width="450" fill="#ffffff" y="-37.499999" height="449.999989" fill-opacity="1"/><rect x="-37.5" width="450" fill="#0a0a0a" y="-37.499999" height="449.999989" fill-opacity="1"/><g transform="matrix(1, 0, 0, 1, 52, 65)"><g clip-path="url(#6a3d06e134)"><g fill="#b4b4b4" fill-opacity="1"><g transform="translate(1.420972, 174.727633)"><g><path d="M 53.609375 -104.515625 C 62.015625 -104.515625 69.320312 -103.207031 75.53125 -100.59375 C 81.738281 -97.988281 86.539062 -94.054688 89.9375 -88.796875 C 93.332031 -83.546875 95.03125 -77.007812 95.03125 -69.1875 L 95.03125 0 L 69.1875 0 L 69.1875 -10.609375 C 63.03125 -5.679688 57.285156 -2.316406 51.953125 -0.515625 C 46.617188 1.273438 41.539062 2.171875 36.71875 2.171875 C 30.28125 2.171875 24.679688 1.039062 19.921875 -1.21875 C 15.171875 -3.476562 11.488281 -6.753906 8.875 -11.046875 C 6.257812 -15.335938 4.953125 -20.503906 4.953125 -26.546875 C 4.953125 -31.535156 5.851562 -35.898438 7.65625 -39.640625 C 9.457031 -43.378906 11.984375 -46.640625 15.234375 -49.421875 C 18.484375 -52.210938 22.3125 -54.625 26.71875 -56.65625 C 31.125 -58.6875 35.910156 -60.425781 41.078125 -61.875 L 69.1875 -69.875 C 68.945312 -74 67.390625 -77.144531 64.515625 -79.3125 C 61.648438 -81.488281 57.722656 -82.578125 52.734375 -82.578125 C 48.847656 -82.578125 44.890625 -81.96875 40.859375 -80.75 C 36.828125 -79.53125 32.953125 -77.875 29.234375 -75.78125 C 25.523438 -73.695312 22.25 -71.320312 19.40625 -68.65625 L 6.875 -88.0625 C 13.945312 -93.8125 21.488281 -97.988281 29.5 -100.59375 C 37.507812 -103.207031 45.546875 -104.515625 53.609375 -104.515625 Z M 45.25 -18.53125 C 49.3125 -18.53125 53.34375 -19.5625 57.34375 -21.625 C 61.34375 -23.6875 65.289062 -26.398438 69.1875 -29.765625 L 69.1875 -48.90625 L 48.03125 -42.125 C 43.28125 -40.613281 39.742188 -38.867188 37.421875 -36.890625 C 35.097656 -34.921875 33.9375 -32.222656 33.9375 -28.796875 C 33.9375 -25.609375 34.9375 -23.097656 36.9375 -21.265625 C 38.9375 -19.441406 41.707031 -18.53125 45.25 -18.53125 Z M 45.25 -18.53125 "/></g></g></g><g fill="#b4b4b4" fill-opacity="1"><g transform="translate(94.850889, 174.727633)"><g><path d="M 41.765625 35.671875 L 13.046875 35.671875 L 13.046875 -102.515625 L 42.46875 -102.515625 L 42.46875 -91.203125 L 42.984375 -91.203125 C 44.898438 -93.753906 47.175781 -96.03125 49.8125 -98.03125 C 52.457031 -100.03125 55.617188 -101.609375 59.296875 -102.765625 C 62.984375 -103.929688 67.320312 -104.515625 72.3125 -104.515625 C 78.8125 -104.515625 84.613281 -103.238281 89.71875 -100.6875 C 94.820312 -98.132812 99.171875 -94.492188 102.765625 -89.765625 C 106.367188 -85.035156 109.113281 -79.421875 111 -72.921875 C 112.882812 -66.421875 113.828125 -59.195312 113.828125 -51.25 C 113.828125 -43.300781 112.867188 -36.050781 110.953125 -29.5 C 109.035156 -22.945312 106.265625 -17.304688 102.640625 -12.578125 C 99.015625 -7.847656 94.617188 -4.207031 89.453125 -1.65625 C 84.296875 0.894531 78.4375 2.171875 71.875 2.171875 C 66.59375 2.171875 62.050781 1.53125 58.25 0.25 C 54.457031 -1.019531 51.269531 -2.679688 48.6875 -4.734375 C 46.101562 -6.796875 44 -8.988281 42.375 -11.3125 L 41.765625 -11.3125 Z M 62.3125 -21.5 C 69.15625 -21.5 74.519531 -23.945312 78.40625 -28.84375 C 82.289062 -33.75 84.234375 -41.273438 84.234375 -51.421875 C 84.234375 -61.171875 82.300781 -68.484375 78.4375 -73.359375 C 74.582031 -78.234375 69.207031 -80.671875 62.3125 -80.671875 C 57.894531 -80.671875 54.0625 -79.492188 50.8125 -77.140625 C 47.570312 -74.796875 45.066406 -71.429688 43.296875 -67.046875 C 41.523438 -62.671875 40.640625 -57.460938 40.640625 -51.421875 C 40.640625 -41.910156 42.597656 -34.546875 46.515625 -29.328125 C 50.429688 -24.109375 55.695312 -21.5 62.3125 -21.5 Z M 62.3125 -21.5 "/></g></g></g><g fill="#b4b4b4" fill-opacity="1"><g transform="translate(202.378312, 174.727633)"><g><path d="M 17.921875 0 L 17.921875 -31.671875 L 49.34375 -31.671875 L 49.34375 0 Z M 17.921875 0 "/></g></g></g></g></g></svg>